<?xml version="1.0" ?><svg viewBox="0 0 92.89 39.65" xmlns="http://www.w3.org/2000/svg"><defs><style>.cls-1,.cls-2{fill:none;stroke:#373535;stroke-miterlimit:10;}.cls-1{stroke-linecap:round;}.cls-3{fill:#373535;}</style></defs><title/><g data-name="Layer 2" id="Layer_2"><g data-name="Layer 1" id="Layer_1-2"><line class="cls-1" x1="41.79" x2="49.31" y1="39.15" y2="39.15"/><line class="cls-1" x1="13.78" x2="37.98" y1="39.15" y2="39.15"/><path class="cls-1" d="M44,.5H5.83a2.28,2.28,0,0,0-2.12,2L.55,19.27a3,3,0,0,0,0,1.11L3.71,37.15a2.28,2.28,0,0,0,2.12,2h4.82"/><line class="cls-1" x1="53.21" x2="47.94" y1="0.5" y2="0.5"/><path class="cls-1" d="M54.48,39.15H87.06a2.28,2.28,0,0,0,2.12-2l3.16-16.77a3,3,0,0,0,0-1.11L89.17,2.5a2.28,2.28,0,0,0-2.12-2H55.75"/><line class="cls-1" x1="85.62" x2="90.89" y1="25.76" y2="25.76"/><line class="cls-1" x1="74.88" x2="80.25" y1="25.76" y2="25.76"/><line class="cls-1" x1="1.73" x2="60.19" y1="25.76" y2="25.76"/><rect class="cls-2" height="38.65" width="14.45" x="60.43" y="0.5"/><path class="cls-1" d="M60.19,11.82H19.82a3.9,3.9,0,0,1-3.9-3.9V.5"/><line class="cls-1" x1="19.83" x2="25.49" y1="3.82" y2="3.82"/><line class="cls-1" x1="51.65" x2="57.31" y1="7.14" y2="7.14"/><line class="cls-1" x1="35.25" x2="40.33" y1="7.14" y2="7.14"/><line class="cls-1" x1="19.83" x2="32.13" y1="7.14" y2="7.14"/><path class="cls-1" d="M16.7,25.76H40.33a0,0,0,0,1,0,0V30.7a2.2,2.2,0,0,1-2.2,2.2H18.91a2.2,2.2,0,0,1-2.2-2.2V25.76A0,0,0,0,1,16.7,25.76Z"/><line class="cls-1" x1="20.56" x2="26.22" y1="29.33" y2="29.33"/><line class="cls-1" x1="30.81" x2="36.47" y1="29.33" y2="29.33"/><path class="cls-3" d="M62.28,32.42H73a1.85,1.85,0,0,1,1.85,1.85v4.89a0,0,0,0,1,0,0H60.43a0,0,0,0,1,0,0V34.27A1.85,1.85,0,0,1,62.28,32.42Z"/></g></g></svg>